<svg width="70" height="68" viewBox="0 0 70 68" fill="none" xmlns="http://www.w3.org/2000/svg">
<path d="M56.0258 25.9597H54.7512V19.8182C54.7501 19.7791 54.7464 19.7402 54.7399 19.7017C54.7417 19.455 54.6535 19.2161 54.4918 19.0296L44.2608 7.35674L44.2533 7.34923C44.192 7.28313 44.1225 7.22508 44.0465 7.17649L43.9788 7.13518C43.9138 7.09909 43.8451 7.07014 43.7739 7.04882L43.7175 7.03004C43.6394 7.01059 43.5592 7.00051 43.4787 7H18.33C17.1813 7 16.2488 7.93315 16.2488 9.07847V25.9578H14.9742C13.331 25.9578 12 27.2871 12 28.9281V44.3768C12 46.0159 13.3329 47.3471 14.9742 47.3471H16.2488V57.9215C16.2488 59.0669 17.1813 60 18.33 60H52.67C53.8168 60 54.7512 59.0669 54.7512 57.9215V47.3471H56.0258C57.6671 47.3471 59 46.0177 59 44.3768V28.9281C59 27.289 57.669 25.9597 56.0258 25.9597ZM18.33 9.07847H42.4372V19.713C42.4372 20.2876 42.9034 20.7513 43.4787 20.7513H52.6719V25.9578H18.33V9.07847ZM33.9001 37.5574C31.3734 36.6562 29.7058 35.2593 29.7058 33.0531C29.7058 30.464 31.8942 28.5057 35.4568 28.5057C37.1939 28.5057 38.4328 28.8436 39.3352 29.2698L38.5682 32.0167C37.5851 31.5385 36.5051 31.2925 35.4116 31.2976C33.9227 31.2976 33.2008 31.9942 33.2008 32.7602C33.2008 33.7291 34.0336 34.1553 36.0189 34.8988C38.7035 35.8901 39.9424 37.2852 39.9424 39.4256C39.9424 41.9716 38.0042 44.1327 33.8324 44.1327C32.0953 44.1327 30.3826 43.6595 29.5254 43.1864L30.2247 40.3719C31.4053 40.9739 32.7082 41.2976 34.0336 41.3182C35.6128 41.3182 36.4475 40.6629 36.4475 39.6734C36.4475 38.7272 35.7275 38.1883 33.9001 37.5574ZM15.9912 36.521C15.9912 31.3633 19.6892 28.5038 24.2877 28.5038C26.0699 28.5038 27.4216 28.8624 28.0308 29.1572L27.3088 31.8815C26.3956 31.4986 25.4134 31.3069 24.423 31.3183C21.7177 31.3183 19.599 32.9611 19.599 36.3389C19.599 39.3561 21.4019 41.2713 24.4456 41.2713C25.5059 41.2713 26.6339 41.0704 27.3314 40.7756L27.8296 43.4774C27.2205 43.7684 25.7766 44.1308 23.9512 44.1308C18.6966 44.1327 15.9912 40.845 15.9912 36.521ZM52.67 57.362H18.33V47.3489H52.67V57.362ZM49.8914 43.9074H45.8776L41.0084 28.7291H44.774L46.6221 35.1485C47.1391 36.9716 47.6128 38.684 47.9738 40.5747H48.0415C48.4259 38.7704 48.8844 36.9827 49.4158 35.2161L51.3559 28.731H55.0069L49.8914 43.9074Z" fill="#ED4C5C"/>
</svg>
